<?xml version="1.0" encoding="UTF-8"?>
<svg version="1.1" xmlns="http://www.w3.org/2000/svg" width="512" height="512">
<path d="M0 0 C0.74970351 -0.00297112 1.49940703 -0.00594224 2.27182883 -0.0090034 C4.79131244 -0.01769524 7.31074855 -0.01919906 9.83024597 -0.02069092 C11.63373924 -0.02531874 13.43723152 -0.03034335 15.24072266 -0.03573608 C20.14574975 -0.04886538 25.05076314 -0.05530606 29.95580506 -0.05974674 C33.01945509 -0.06267657 36.08310136 -0.0667812 39.1467495 -0.07125092 C48.72983432 -0.08492714 58.31291059 -0.09459323 67.8960045 -0.09845281 C78.96269743 -0.10293424 90.0292669 -0.12048558 101.09592229 -0.1494534 C109.64717609 -0.17106091 118.19839512 -0.18115659 126.74967593 -0.18249393 C131.85834063 -0.18354261 136.96688929 -0.18946385 142.07552528 -0.20731354 C146.881288 -0.22377814 151.68684725 -0.22595755 156.4926281 -0.21717453 C158.25586618 -0.2164033 160.01911514 -0.22075823 161.78232574 -0.23063278 C164.19098263 -0.24333025 166.59891646 -0.23748778 169.00756836 -0.22705078 C169.70397944 -0.23510719 170.40039052 -0.24316359 171.11790496 -0.25146413 C177.00790477 -0.19184548 180.8459305 1.60016761 185.31925964 5.32794189 C192.76077092 14.14025788 192.26773951 22.68510942 192.21183777 33.62872314 C192.2172629 35.41000947 192.22438775 37.19129131 192.233078 38.9725647 C192.25126779 43.79490091 192.24426179 48.61689369 192.23156166 53.43923569 C192.22141147 58.49369968 192.23083295 63.54813491 192.23710632 68.6026001 C192.24437684 77.0895514 192.23481063 85.57636333 192.21574402 94.06329346 C192.19397645 103.86546531 192.20102824 113.66730433 192.22304964 123.46946812 C192.24122059 131.89604058 192.24375367 140.32251304 192.23329496 148.74909878 C192.22706936 153.77727652 192.22619872 158.80529797 192.23944092 163.83346558 C192.25102345 168.56142325 192.24292983 173.28895315 192.21986389 178.01686478 C192.21458963 179.74861568 192.21606856 181.48040279 192.22491455 183.21213913 C192.30932733 201.42048631 192.30932733 201.42048631 184.94425964 208.95294189 C178.87076422 213.04087151 173.39881318 214.51428861 166.04194641 214.52812195 C164.95196832 214.53620025 164.95196832 214.53620025 163.83997047 214.54444176 C161.42810462 214.55864091 159.01679388 214.55163786 156.60490417 214.54449463 C154.86627261 214.55020246 153.12764478 214.55716832 151.38902283 214.56529236 C146.68230935 214.58319425 141.97578261 214.58206085 137.26904535 214.57634997 C133.33281301 214.5732535 129.39661629 214.57935575 125.46038902 214.58538872 C116.17031428 214.5994229 106.88033152 214.59788217 97.59025574 214.58648682 C88.02216286 214.57500943 78.45435041 214.58907744 68.88629448 214.61588329 C60.65672562 214.63807175 52.42724457 214.6446705 44.19764793 214.63880688 C39.28900109 214.6354433 34.38053393 214.63781239 29.47191238 214.65505791 C24.85394705 214.67057492 20.23639561 214.66651894 15.61844635 214.64775276 C13.92945558 214.64407987 12.24043383 214.64713723 10.55147171 214.65763855 C-9.2135386 214.77109061 -9.2135386 214.77109061 -16.23016167 208.39044857 C-21.22250647 203.04345115 -22.60536658 197.94027577 -22.57989502 190.69703674 C-22.5851317 189.95661375 -22.59036838 189.21619075 -22.59576374 188.4533307 C-22.61074254 185.97699054 -22.61146843 183.50085741 -22.61213684 181.0244751 C-22.61975988 179.24687858 -22.62818763 177.46928536 -22.63735962 175.69169617 C-22.65930028 170.86502209 -22.66810323 166.03841136 -22.67318606 161.21169305 C-22.67683088 158.19389296 -22.68307168 155.17610943 -22.69018745 152.15831566 C-22.7146828 141.62346036 -22.72773353 131.08865429 -22.73127747 120.55377197 C-22.73491029 110.74543137 -22.76478736 100.93740415 -22.80668205 91.12915927 C-22.84141903 82.70008632 -22.85682652 74.27111703 -22.8575235 65.84197301 C-22.85831531 60.81137562 -22.86700937 55.78109733 -22.89552116 50.75057411 C-22.92175937 46.01524005 -22.92387496 41.2804883 -22.90786552 36.54511452 C-22.90605546 34.81257351 -22.91270159 33.07999859 -22.92868423 31.34753036 C-23.08166952 13.67913591 -23.08166952 13.67913591 -17.30574036 6.14044189 C-11.97913922 1.12808156 -7.09321853 -0.00874146 0 0 Z " fill="#000000" transform="translate(299.3057403564453,271.85955810546875)"/>
<path d="M0 0 C0.74970351 -0.00297112 1.49940703 -0.00594224 2.27182883 -0.0090034 C4.79131244 -0.01769524 7.31074855 -0.01919906 9.83024597 -0.02069092 C11.63373924 -0.02531874 13.43723152 -0.03034335 15.24072266 -0.03573608 C20.14574975 -0.04886538 25.05076314 -0.05530606 29.95580506 -0.05974674 C33.01945509 -0.06267657 36.08310136 -0.0667812 39.1467495 -0.07125092 C48.72983432 -0.08492714 58.31291059 -0.09459323 67.8960045 -0.09845281 C78.96269743 -0.10293424 90.0292669 -0.12048558 101.09592229 -0.1494534 C109.64717609 -0.17106091 118.19839512 -0.18115659 126.74967593 -0.18249393 C131.85834063 -0.18354261 136.96688929 -0.18946385 142.07552528 -0.20731354 C146.881288 -0.22377814 151.68684725 -0.22595755 156.4926281 -0.21717453 C158.25586618 -0.2164033 160.01911514 -0.22075823 161.78232574 -0.23063278 C164.19098263 -0.24333025 166.59891646 -0.23748778 169.00756836 -0.22705078 C169.70397944 -0.23510719 170.40039052 -0.24316359 171.11790496 -0.25146413 C177.00790477 -0.19184548 180.8459305 1.60016761 185.31925964 5.32794189 C192.76077092 14.14025788 192.26773951 22.68510942 192.21183777 33.62872314 C192.2172629 35.41000947 192.22438775 37.19129131 192.233078 38.9725647 C192.25126779 43.79490091 192.24426179 48.61689369 192.23156166 53.43923569 C192.22141147 58.49369968 192.23083295 63.54813491 192.23710632 68.6026001 C192.24437684 77.0895514 192.23481063 85.57636333 192.21574402 94.06329346 C192.19397645 103.86546531 192.20102824 113.66730433 192.22304964 123.46946812 C192.24122059 131.89604058 192.24375367 140.32251304 192.23329496 148.74909878 C192.22706936 153.77727652 192.22619872 158.80529797 192.23944092 163.83346558 C192.25102345 168.56142325 192.24292983 173.28895315 192.21986389 178.01686478 C192.21458963 179.74861568 192.21606856 181.48040279 192.22491455 183.21213913 C192.30932733 201.42048631 192.30932733 201.42048631 184.94425964 208.95294189 C178.87076422 213.04087151 173.39881318 214.51428861 166.04194641 214.52812195 C164.95196832 214.53620025 164.95196832 214.53620025 163.83997047 214.54444176 C161.42810462 214.55864091 159.01679388 214.55163786 156.60490417 214.54449463 C154.86627261 214.55020246 153.12764478 214.55716832 151.38902283 214.56529236 C146.68230935 214.58319425 141.97578261 214.58206085 137.26904535 214.57634997 C133.33281301 214.5732535 129.39661629 214.57935575 125.46038902 214.58538872 C116.17031428 214.5994229 106.88033152 214.59788217 97.59025574 214.58648682 C88.02216286 214.57500943 78.45435041 214.58907744 68.88629448 214.61588329 C60.65672562 214.63807175 52.42724457 214.6446705 44.19764793 214.63880688 C39.28900109 214.6354433 34.38053393 214.63781239 29.47191238 214.65505791 C24.85394705 214.67057492 20.23639561 214.66651894 15.61844635 214.64775276 C13.92945558 214.64407987 12.24043383 214.64713723 10.55147171 214.65763855 C-9.2135386 214.77109061 -9.2135386 214.77109061 -16.23016167 208.39044857 C-21.22250647 203.04345115 -22.60536658 197.94027577 -22.57989502 190.69703674 C-22.5851317 189.95661375 -22.59036838 189.21619075 -22.59576374 188.4533307 C-22.61074254 185.97699054 -22.61146843 183.50085741 -22.61213684 181.0244751 C-22.61975988 179.24687858 -22.62818763 177.46928536 -22.63735962 175.69169617 C-22.65930028 170.86502209 -22.66810323 166.03841136 -22.67318606 161.21169305 C-22.67683088 158.19389296 -22.68307168 155.17610943 -22.69018745 152.15831566 C-22.7146828 141.62346036 -22.72773353 131.08865429 -22.73127747 120.55377197 C-22.73491029 110.74543137 -22.76478736 100.93740415 -22.80668205 91.12915927 C-22.84141903 82.70008632 -22.85682652 74.27111703 -22.8575235 65.84197301 C-22.85831531 60.81137562 -22.86700937 55.78109733 -22.89552116 50.75057411 C-22.92175937 46.01524005 -22.92387496 41.2804883 -22.90786552 36.54511452 C-22.90605546 34.81257351 -22.91270159 33.07999859 -22.92868423 31.34753036 C-23.08166952 13.67913591 -23.08166952 13.67913591 -17.30574036 6.14044189 C-11.97913922 1.12808156 -7.09321853 -0.00874146 0 0 Z " fill="#000000" transform="translate(43.30574035644531,271.85955810546875)"/>
<path d="M0 0 C0.72665206 -0.00538554 1.45330412 -0.01077108 2.20197594 -0.01631981 C4.61384179 -0.03051896 7.02515253 -0.02351592 9.43704224 -0.01637268 C11.1756738 -0.02208051 12.91430163 -0.02904637 14.65292358 -0.03717041 C19.35963706 -0.0550723 24.0661638 -0.0539389 28.77290106 -0.04822803 C32.70913341 -0.04513155 36.64533012 -0.0512338 40.58155739 -0.05726677 C49.87163213 -0.07130095 59.16161489 -0.06976022 68.45169067 -0.05836487 C78.01978355 -0.04688748 87.587596 -0.0609555 97.15565193 -0.08776134 C105.38522079 -0.1099498 113.61470184 -0.11654855 121.84429848 -0.11068493 C126.75294532 -0.10732135 131.66141248 -0.10969044 136.57003403 -0.12693596 C141.18799936 -0.14245297 145.8055508 -0.13839699 150.42350006 -0.11963081 C152.11249083 -0.11595792 153.80151259 -0.11901528 155.4904747 -0.1295166 C175.25548501 -0.24296866 175.25548501 -0.24296866 182.27210808 6.13767338 C187.26445288 11.4846708 188.64731299 16.58784618 188.62184143 23.83108521 C188.62707811 24.5715082 188.63231479 25.3119312 188.63771015 26.07479125 C188.65268895 28.55113141 188.65341484 31.02726454 188.65408325 33.50364685 C188.6617063 35.28124337 188.67013404 37.05883658 188.67930603 38.83642578 C188.7012467 43.66309986 188.71004964 48.48971058 188.71513247 53.3164289 C188.71877729 56.33422899 188.72501809 59.35201252 188.73213387 62.36980629 C188.75662921 72.90466159 188.76967994 83.43946766 188.77322388 93.97434998 C188.7768567 103.78269058 188.80673377 113.5907178 188.84862846 123.39896268 C188.88336544 131.82803563 188.89877293 140.25700492 188.89946991 148.68614894 C188.90026172 153.71674633 188.90895578 158.74702462 188.93746758 163.77754784 C188.96370578 168.5128819 188.96582137 173.24763365 188.94981194 177.98300743 C188.94800187 179.71554843 188.954648 181.44812336 188.97063065 183.18059158 C189.12361593 200.84898604 189.12361593 200.84898604 183.34768677 208.38768005 C178.02108563 213.40004039 173.13516495 214.53686341 166.04194641 214.52812195 C164.91739114 214.53257863 164.91739114 214.53257863 163.77011758 214.53712535 C161.25063398 214.54581719 158.73119786 214.547321 156.21170044 214.54881287 C154.40820718 214.55344069 152.60471489 214.5584653 150.80122375 214.56385803 C145.89619667 214.57698733 140.99118327 214.58342801 136.08614135 214.58786869 C133.02249132 214.59079852 129.95884505 214.59490315 126.89519691 214.59937286 C117.31211209 214.61304909 107.72903582 214.62271518 98.14594191 214.62657475 C87.07924898 214.63105619 76.01267951 214.64860753 64.94602412 214.67757535 C56.39477032 214.69918286 47.84355129 214.70927854 39.29227048 214.71061587 C34.18360578 214.71166455 29.07505712 214.71758579 23.96642113 214.73543549 C19.16065841 214.75190008 14.35509917 214.7540795 9.54931831 214.74529648 C7.78608023 214.74452524 6.02283127 214.74888018 4.25962067 214.75875473 C1.85096378 214.7714522 -0.55697005 214.76560973 -2.96562195 214.75517273 C-3.66203303 214.76322913 -4.35844411 214.77128554 -5.07595855 214.77958608 C-10.96595835 214.71996743 -14.80398409 212.92795434 -19.27731323 209.20018005 C-26.71882451 200.38786407 -26.2257931 191.84301253 -26.16989136 180.8993988 C-26.17531649 179.11811248 -26.18244134 177.33683064 -26.19113159 175.55555725 C-26.20932138 170.73322104 -26.20231538 165.91122825 -26.18961525 161.08888626 C-26.17946506 156.03442227 -26.18888653 150.97998704 -26.19515991 145.92552185 C-26.20243043 137.43857054 -26.19286422 128.95175862 -26.17379761 120.46482849 C-26.15203004 110.66265664 -26.15908183 100.86081762 -26.18110323 91.05865383 C-26.19927418 82.63208136 -26.20180726 74.20560891 -26.19134855 65.77902317 C-26.18512295 60.75084543 -26.18425231 55.72282398 -26.19749451 50.69465637 C-26.20907704 45.9666987 -26.20098342 41.23916879 -26.17791748 36.51125717 C-26.17264322 34.77950627 -26.17412215 33.04771916 -26.18296814 31.31598282 C-26.26738092 13.10763564 -26.26738092 13.10763564 -18.90231323 5.57518005 C-12.82881781 1.48725044 -7.35686677 0.01383334 0 0 Z " fill="#000000" transform="translate(302.6523132324219,25.612319946289063)"/>
<path d="M0 0 C0.72665206 -0.00538554 1.45330412 -0.01077108 2.20197594 -0.01631981 C4.61384179 -0.03051896 7.02515253 -0.02351592 9.43704224 -0.01637268 C11.1756738 -0.02208051 12.91430163 -0.02904637 14.65292358 -0.03717041 C19.35963706 -0.0550723 24.0661638 -0.0539389 28.77290106 -0.04822803 C32.70913341 -0.04513155 36.64533012 -0.0512338 40.58155739 -0.05726677 C49.87163213 -0.07130095 59.16161489 -0.06976022 68.45169067 -0.05836487 C78.01978355 -0.04688748 87.587596 -0.0609555 97.15565193 -0.08776134 C105.38522079 -0.1099498 113.61470184 -0.11654855 121.84429848 -0.11068493 C126.75294532 -0.10732135 131.66141248 -0.10969044 136.57003403 -0.12693596 C141.18799936 -0.14245297 145.8055508 -0.13839699 150.42350006 -0.11963081 C152.11249083 -0.11595792 153.80151259 -0.11901528 155.4904747 -0.1295166 C175.25548501 -0.24296866 175.25548501 -0.24296866 182.27210808 6.13767338 C187.26445288 11.4846708 188.64731299 16.58784618 188.62184143 23.83108521 C188.62707811 24.5715082 188.63231479 25.3119312 188.63771015 26.07479125 C188.65268895 28.55113141 188.65341484 31.02726454 188.65408325 33.50364685 C188.6617063 35.28124337 188.67013404 37.05883658 188.67930603 38.83642578 C188.7012467 43.66309986 188.71004964 48.48971058 188.71513247 53.3164289 C188.71877729 56.33422899 188.72501809 59.35201252 188.73213387 62.36980629 C188.75662921 72.90466159 188.76967994 83.43946766 188.77322388 93.97434998 C188.7768567 103.78269058 188.80673377 113.5907178 188.84862846 123.39896268 C188.88336544 131.82803563 188.89877293 140.25700492 188.89946991 148.68614894 C188.90026172 153.71674633 188.90895578 158.74702462 188.93746758 163.77754784 C188.96370578 168.5128819 188.96582137 173.24763365 188.94981194 177.98300743 C188.94800187 179.71554843 188.954648 181.44812336 188.97063065 183.18059158 C189.12361593 200.84898604 189.12361593 200.84898604 183.34768677 208.38768005 C178.02108563 213.40004039 173.13516495 214.53686341 166.04194641 214.52812195 C164.91739114 214.53257863 164.91739114 214.53257863 163.77011758 214.53712535 C161.25063398 214.54581719 158.73119786 214.547321 156.21170044 214.54881287 C154.40820718 214.55344069 152.60471489 214.5584653 150.80122375 214.56385803 C145.89619667 214.57698733 140.99118327 214.58342801 136.08614135 214.58786869 C133.02249132 214.59079852 129.95884505 214.59490315 126.89519691 214.59937286 C117.31211209 214.61304909 107.72903582 214.62271518 98.14594191 214.62657475 C87.07924898 214.63105619 76.01267951 214.64860753 64.94602412 214.67757535 C56.39477032 214.69918286 47.84355129 214.70927854 39.29227048 214.71061587 C34.18360578 214.71166455 29.07505712 214.71758579 23.96642113 214.73543549 C19.16065841 214.75190008 14.35509917 214.7540795 9.54931831 214.74529648 C7.78608023 214.74452524 6.02283127 214.74888018 4.25962067 214.75875473 C1.85096378 214.7714522 -0.55697005 214.76560973 -2.96562195 214.75517273 C-3.66203303 214.76322913 -4.35844411 214.77128554 -5.07595855 214.77958608 C-10.96595835 214.71996743 -14.80398409 212.92795434 -19.27731323 209.20018005 C-26.71882451 200.38786407 -26.2257931 191.84301253 -26.16989136 180.8993988 C-26.17531649 179.11811248 -26.18244134 177.33683064 -26.19113159 175.55555725 C-26.20932138 170.73322104 -26.20231538 165.91122825 -26.18961525 161.08888626 C-26.17946506 156.03442227 -26.18888653 150.97998704 -26.19515991 145.92552185 C-26.20243043 137.43857054 -26.19286422 128.95175862 -26.17379761 120.46482849 C-26.15203004 110.66265664 -26.15908183 100.86081762 -26.18110323 91.05865383 C-26.19927418 82.63208136 -26.20180726 74.20560891 -26.19134855 65.77902317 C-26.18512295 60.75084543 -26.18425231 55.72282398 -26.19749451 50.69465637 C-26.20907704 45.9666987 -26.20098342 41.23916879 -26.17791748 36.51125717 C-26.17264322 34.77950627 -26.17412215 33.04771916 -26.18296814 31.31598282 C-26.26738092 13.10763564 -26.26738092 13.10763564 -18.90231323 5.57518005 C-12.82881781 1.48725044 -7.35686677 0.01383334 0 0 Z " fill="#000000" transform="translate(46.652313232421875,25.612319946289063)"/>
</svg>
