<?xml version="1.0" encoding="UTF-8"?>
<svg version="1.1" xmlns="http://www.w3.org/2000/svg" width="512" height="512">
<path d="M0 0 C126.72 0 253.44 0 384 0 C384.0825 59.19375 384.165 118.3875 384.25 179.375 C384.28641602 198.07849121 384.32283203 216.78198242 384.36035156 236.05224609 C384.37841797 258.85864258 384.37841797 258.85864258 384.3817749 269.52896118 C384.38550756 276.99523953 384.40019084 284.46139838 384.42230225 291.92764282 C384.44776588 300.53854713 384.45934324 309.14933668 384.4537798 317.76027892 C384.45137034 322.16506369 384.45518763 326.56959199 384.47686052 330.97432971 C384.49635314 334.96020472 384.49727629 338.94564234 384.48360443 342.93153763 C384.48191284 344.36972902 384.48694624 345.80794807 384.49953032 347.24608541 C384.58888276 358.09847951 383.34254916 367.28916454 375.703125 375.46875 C369.45227034 381.08878446 362.51425261 384.24548612 354.04220963 384.25726891 C352.2779093 384.26694224 352.2779093 384.26694224 350.47796655 384.276811 C348.55337597 384.2721652 348.55337597 384.2721652 346.58990479 384.26742554 C345.20591794 384.27116367 343.8219332 384.27576584 342.4379518 384.28115618 C338.63986096 384.29338164 334.84185822 384.29312625 331.04375219 384.29076743 C326.9454548 384.29035915 322.84718561 384.30139956 318.74890137 384.31088257 C310.72119697 384.32749131 302.69352194 384.33299207 294.66580179 384.33410732 C288.13951944 384.33505791 281.61324676 384.33916872 275.08696747 384.34550858 C256.57965853 384.36312104 238.07237278 384.3723475 219.5650554 384.37084763 C218.06863911 384.37072776 218.06863911 384.37072776 216.54199219 384.37060547 C215.54316174 384.37052371 214.54433129 384.37044195 213.51523325 384.37035771 C197.3301481 384.36954492 181.14515604 384.38868074 164.96009782 384.4168822 C148.33737053 384.44561747 131.71468863 384.45942213 115.09193587 384.45769465 C105.76116362 384.45703095 96.43048894 384.46251459 87.09973907 384.48405075 C79.15474432 384.50227105 71.20989136 384.50660296 63.26488474 384.4930319 C59.21297174 384.48650638 55.16133071 384.48636983 51.10944366 384.5037384 C47.39581154 384.51949297 43.6826665 384.51658163 39.96904609 384.49917014 C37.99835181 384.49466014 36.02764228 384.50973892 34.05700707 384.52564943 C24.19839169 384.44923519 15.89590512 382.58143497 8.53125 375.703125 C2.76762861 369.29256651 -0.25212861 362.30881666 -0.24609566 353.63945961 C-0.2500774 352.37309544 -0.25405914 351.10673126 -0.25816154 349.80199242 C-0.25245812 348.40515443 -0.24656736 347.0083172 -0.24050903 345.61148071 C-0.24138428 344.12496873 -0.24313884 342.63845706 -0.24569702 341.15194702 C-0.25018251 337.06259497 -0.24215671 332.97334767 -0.23214546 328.88400891 C-0.2234155 324.40816893 -0.22633446 319.93233382 -0.2277813 315.45648766 C-0.22884489 306.76708506 -0.21960754 298.07772377 -0.20677864 289.38833179 C-0.19238424 279.33790396 -0.19078945 269.28750097 -0.18920898 259.23706055 C-0.17870633 232.69970048 -0.15078413 206.16234962 -0.125 179.625 C-0.08375 120.34875 -0.0425 61.0725 0 0 Z M128 96 C128 159.36 128 222.72 128 288 C138.56 288 149.12 288 160 288 C160 224.64 160 161.28 160 96 C149.44 96 138.88 96 128 96 Z M224 96 C224 159.36 224 222.72 224 288 C234.56 288 245.12 288 256 288 C256 224.64 256 161.28 256 96 C245.44 96 234.88 96 224 96 Z " fill="#000000" transform="translate(64,128)"/>
<path d="M0 0 C42.24 0 84.48 0 128 0 C128 10.56 128 21.12 128 32 C133.03685059 31.97905273 138.07370117 31.95810547 143.26318359 31.93652344 C159.90719423 31.87023657 176.55121007 31.82585382 193.19531822 31.79275131 C203.28636795 31.77214733 213.37729241 31.74406813 223.46826172 31.69824219 C232.26603488 31.65830814 241.0637173 31.63255146 249.86157858 31.62364602 C254.5177615 31.61844239 259.17368486 31.6062572 263.82978439 31.57707977 C268.21777925 31.54980679 272.60540911 31.54157888 276.99348068 31.54756927 C278.59863269 31.54647433 280.20379767 31.53859139 281.80887604 31.5231781 C293.12377273 31.41990849 302.86761582 32.26374025 311.46875 40.296875 C325.58832943 56.00130518 320 74.43293353 320 96 C151.04 96 -17.92 96 -192 96 C-192 49.41477273 -192 49.41477273 -183.703125 40.53125 C-177.00372605 34.50793718 -169.92663642 31.74599905 -160.90054321 31.75949097 C-160.20937987 31.75778212 -159.51821652 31.75607327 -158.80610883 31.75431263 C-156.5029561 31.7510329 -154.2000983 31.76199614 -151.89697266 31.77294922 C-150.24093635 31.77351366 -148.58489954 31.77319613 -146.92886353 31.77206421 C-142.44171461 31.77149099 -137.95467288 31.78324041 -133.46754885 31.79721212 C-128.77503282 31.80972452 -124.08251427 31.81089039 -119.38998413 31.81326294 C-110.50783568 31.81947621 -101.62573654 31.83588497 -92.74360979 31.85596192 C-82.63000614 31.87832567 -72.51640013 31.88931555 -62.40277791 31.89935279 C-41.60181832 31.92025132 -20.8009263 31.95692567 0 32 C0 21.44 0 10.88 0 0 Z " fill="#000000" transform="translate(192,0)"/>
</svg>
