<?xml version="1.0" encoding="UTF-8"?>
<svg version="1.1" xmlns="http://www.w3.org/2000/svg" width="512" height="512">
<path d="M0 0 C2.97232522 1.42719048 5.0700257 2.82188853 7.40423584 5.16372681 C8.05762436 5.814366 8.71101288 6.46500519 9.38420105 7.13536072 C10.08982681 7.84817703 10.79545258 8.56099335 11.52246094 9.29541016 C12.27406998 10.04672714 13.02567902 10.79804413 13.80006409 11.5721283 C16.28293771 14.05639513 18.7586523 16.54767095 21.234375 19.0390625 C22.95458084 20.76299849 24.6752288 22.48649341 26.39630127 24.20956421 C30.92494332 28.74584251 35.44754715 33.28809494 39.96893311 37.831604 C44.58374014 42.46686953 49.20421396 47.09647863 53.82421875 51.7265625 C62.88837732 60.81217086 71.9463628 69.90390788 81 79 C79.55833387 82.25554745 77.77301368 84.54111519 75.34131527 87.13103867 C74.57565461 87.95063403 73.80999395 88.77022939 73.02113146 89.61466098 C72.17561788 90.50960057 71.33010431 91.40454015 70.45896912 92.32659912 C69.5629434 93.28148452 68.66691768 94.23636992 67.74373966 95.22019124 C65.25321338 97.87259443 62.75587112 100.51848945 60.25673497 103.16277909 C58.65785831 104.855285 57.06071352 106.54940903 55.46401215 108.24396706 C35.14013577 129.80743274 14.57920316 151.1409119 -6.07961211 172.38333862 C-9.47114228 175.87081932 -12.86097777 179.3599428 -16.24975586 182.85009766 C-16.92419095 183.54464889 -17.59862605 184.23920013 -18.29349857 184.95479837 C-29.12380269 196.11681841 -39.79865361 207.41615798 -50.4195546 218.7772021 C-61.38323321 230.49813463 -72.50358936 242.05312378 -83.77549404 253.47800279 C-90.08065179 259.8774215 -96.30057404 266.32576945 -102.3463459 272.97161102 C-124.55193634 297.31487461 -144.06827665 317.59368867 -178.51694521 319.25587586 C-197.39183158 319.90835981 -216.28767722 318.38870306 -235 316 C-244.41863205 243.14031417 -244.41863205 243.14031417 -224.46732551 216.77355131 C-214.17073401 203.70966229 -201.79187738 192.29418027 -189.51731399 181.13075447 C-182.77653709 174.98396388 -176.28218247 168.59750699 -169.78674978 162.1936425 C-158.21023291 150.79232063 -146.46683475 139.58181408 -134.59716797 128.48657227 C-123.10189082 117.74051606 -111.69933434 106.90835138 -100.40283203 95.95336914 C-99.70088807 95.27270578 -98.99894411 94.59204242 -98.27572912 93.8907529 C-94.75308031 90.47384978 -91.23210613 87.05522688 -87.71195889 83.63574684 C-58.72908242 55.48599788 -29.46587416 27.64327611 0 0 Z " fill="#000000" transform="translate(299,132)"/>
<path d="M0 0 C1.87556317 1.69536558 3.70655689 3.44088233 5.4987793 5.22412109 C6.26827408 5.98594948 6.26827408 5.98594948 7.05331421 6.76316833 C8.73210532 8.42816293 10.40346935 10.10037628 12.07421875 11.7734375 C13.24651143 12.94183875 14.41902583 14.11001756 15.5917511 15.27798462 C18.04187617 17.72066957 20.48811814 20.16716541 22.93188477 22.61621094 C26.0571732 25.74730127 29.19369825 28.86685966 32.33345318 31.98343468 C34.75539258 34.39061587 37.17034151 36.80471665 39.58335304 39.22084427 C40.7367981 40.3737775 41.89259503 41.52436297 43.05081749 42.6724968 C44.67097362 44.28026093 46.28122986 45.89735258 47.8894043 47.51708984 C48.80618454 48.43324066 49.72296478 49.34939148 50.66752625 50.29330444 C55.57250272 55.98523474 57.17947861 61.77622781 56.92578125 69.16015625 C55.10071901 82.59925094 37.05513146 95.05592018 27.9375 104.125 C26.29208424 105.76539085 24.64689999 107.40601395 23.00195312 109.046875 C19.00396794 113.03393286 15.0029226 117.01789996 11 121 C5.89158298 116.7237549 1.10890952 112.24775843 -3.58764648 107.52587891 C-4.31043289 106.80323853 -5.0332193 106.08059814 -5.77790833 105.33605957 C-8.14468416 102.96859215 -10.50790719 100.59761225 -12.87109375 98.2265625 C-14.51996846 96.57582093 -16.16906542 94.92530133 -17.81837463 93.2749939 C-22.14254924 88.94701522 -26.4637113 84.61604101 -30.78424072 80.28442383 C-35.2000387 75.85836624 -39.618696 71.43516519 -44.03710938 67.01171875 C-52.69419795 58.3439301 -61.34810481 49.67297231 -70 41 C-66.76539147 37.17726408 -63.52551866 33.40264427 -60.00170898 29.84057617 C-59.27753281 29.10679245 -58.55335663 28.37300873 -57.80723572 27.61698914 C-56.66322044 26.46659904 -56.66322044 26.46659904 -55.49609375 25.29296875 C-54.29473534 24.08306023 -54.29473534 24.08306023 -53.06910706 22.84870911 C-51.3854384 21.15564486 -49.70035076 19.46399065 -48.01391602 17.77368164 C-45.43498361 15.18497407 -42.86690874 12.58579558 -40.29882812 9.98632812 C-38.65690925 8.33788476 -37.01435304 6.69007591 -35.37109375 5.04296875 C-34.60639267 4.26592087 -33.84169159 3.48887299 -33.05381775 2.6882782 C-32.33279373 1.97025528 -31.61176971 1.25223236 -30.86889648 0.51245117 C-30.24079575 -0.1192952 -29.61269501 -0.75104156 -28.96556091 -1.40193176 C-19.96627636 -8.71865784 -8.662981 -6.18406505 0 0 Z " fill="#000000" transform="translate(392,69)"/>
</svg>
