<?xml version="1.0" encoding="UTF-8"?>
<svg version="1.1" xmlns="http://www.w3.org/2000/svg" width="512" height="512">
<path d="M0 0 C1.26216971 -0.00445784 2.52433941 -0.00891569 3.82475668 -0.01350862 C5.22815932 -0.01341932 6.63156195 -0.01322947 8.03496456 -0.01294994 C9.52375587 -0.01624948 11.01254629 -0.01997523 12.50133556 -0.02409142 C16.59843249 -0.03410948 20.69551477 -0.03782791 24.79262221 -0.04048073 C29.20930613 -0.04438439 33.62597847 -0.05396272 38.04265499 -0.0626936 C48.71224746 -0.08245677 59.38184087 -0.09252425 70.05144706 -0.10142139 C75.07633822 -0.10580472 80.10122833 -0.11117143 85.12611866 -0.11641026 C101.83089542 -0.13342275 118.53567153 -0.14791667 135.24045563 -0.155159 C139.57551798 -0.15706888 143.91058033 -0.15898922 148.24564266 -0.16094494 C149.86182535 -0.16167055 149.86182535 -0.16167055 151.5106582 -0.16241082 C168.96262694 -0.17071016 186.41452712 -0.19604538 203.86646593 -0.22852562 C221.7852537 -0.26160272 239.70400663 -0.27960837 257.62282509 -0.28280324 C267.68304441 -0.28496778 277.74316375 -0.29370826 287.80335331 -0.31926441 C296.3716185 -0.34098032 304.93975943 -0.34901744 313.50804902 -0.33929763 C317.87803673 -0.33475546 322.24776811 -0.33663427 326.6177206 -0.35605907 C330.62321465 -0.37370966 334.62826574 -0.37267787 338.63376462 -0.35716178 C340.07798197 -0.35478857 341.52223015 -0.3590944 342.96640045 -0.37099043 C356.89146913 -0.47853234 367.96897898 2.75021669 378.26785946 12.35687733 C388.91543297 23.44370717 391.4013446 34.49570448 391.15457821 49.29047108 C390.47992749 66.46581544 378.78266583 77.55320086 367.56864071 89.23968983 C364.46254669 92.48831032 361.49202425 95.83441527 358.54837704 99.23016834 C356.09165681 102.04243329 353.55443866 104.77645105 351.01004696 107.50922108 C346.68640535 112.17255331 342.40686243 116.87118284 338.16239071 121.60687733 C335.58694921 124.46504311 332.98818932 127.30132369 330.38504696 130.13422108 C327.03211579 133.78349279 323.69506339 137.44591705 320.38504696 141.13422108 C316.60967479 145.34106435 312.79524247 149.5109696 308.97098446 153.67328358 C306.09082089 156.81089193 303.22973082 159.96443049 300.38504696 163.13422108 C296.60898436 167.34183369 292.79400689 171.51264479 288.96878719 175.67548084 C286.10902491 178.79055233 283.26989337 181.92273783 280.44754696 185.07172108 C276.45056318 189.52632018 272.39430286 193.92340586 268.32889462 198.31537342 C264.57026716 202.38033919 260.85754853 206.48407014 257.16239071 210.60687733 C254.58694781 213.46504466 251.98803186 216.30117778 249.38504696 219.13422108 C245.87496104 222.95844159 242.3700737 226.78711364 238.88504696 230.63422108 C238.18379696 231.40765858 237.48254696 232.18109608 236.76004696 232.97797108 C236.14129696 233.68953358 235.52254696 234.40109608 234.88504696 235.13422108 C234.35898357 235.65142719 233.83292019 236.16863331 233.29091549 236.70151234 C231.13583682 240.43065102 231.47834668 243.98000832 231.51615047 248.21381092 C231.512384 249.13134647 231.50861752 250.04888203 231.5047369 250.99422169 C231.49830438 252.9852582 231.49863451 254.97632542 231.50492191 256.9673624 C231.51402494 260.1200028 231.50381676 263.27204753 231.48830318 266.42465687 C231.44818299 275.38740569 231.4470007 284.35010835 231.44925594 293.31293201 C231.44930706 298.79656462 231.43013206 304.27987637 231.39992237 309.76342106 C231.38909591 312.86675433 231.40122925 315.96947554 231.41374874 319.07278919 C231.40484335 320.98047966 231.39476862 322.88816516 231.38333797 324.79584217 C231.39308147 325.6563065 231.40282497 326.51677082 231.41286373 327.40330982 C231.34838049 332.80183187 230.44881532 335.83954775 226.88504696 340.13422108 C224.95625948 341.96684394 223.06735785 343.65309288 221.01004696 345.32172108 C220.44197323 345.79239002 219.8738995 346.26305897 219.28861141 346.74799061 C214.69624648 350.53082621 210.02256297 354.21141387 205.32889462 357.86737537 C200.79889644 361.3978345 196.33350788 365.00171209 191.88504696 368.63422108 C186.36421157 373.14002684 180.79967296 377.58091373 175.18070126 381.96356678 C170.63382901 385.51994182 166.16297705 389.16387997 161.69754696 392.82172108 C141.53132183 409.3094639 141.53132183 409.3094639 128.88504696 408.13422108 C123.90765845 405.8232907 121.58314973 402.84493297 118.88504696 398.13422108 C118.39679146 394.93511868 118.39679146 394.93511868 118.41316891 391.4302721 C118.41060662 390.78150525 118.40804433 390.13273841 118.40540439 389.46431196 C118.4015155 387.30384124 118.42594904 385.14464212 118.45023251 382.98431873 C118.45295981 381.42993345 118.45382726 379.87554395 118.45297909 378.3211565 C118.45457619 374.98003476 118.46820072 371.63925534 118.49088764 368.2982111 C118.52560543 363.01108004 118.52667271 357.72427056 118.52196407 352.437047 C118.51446907 338.35358219 118.54773805 324.27028674 118.6083954 310.18695486 C118.64821772 300.9308984 118.66811462 291.67528736 118.65001804 282.4191469 C118.64133434 277.16726247 118.66428184 271.91677784 118.71104562 266.66510892 C118.73290785 263.3922818 118.72549817 260.11999522 118.71002865 256.84715176 C118.7087266 255.33466369 118.71933674 253.82210894 118.74302769 252.30980587 C118.99473 242.65493198 118.99473 242.65493198 114.5206213 234.37576771 C113.33215019 233.2695804 112.12125063 232.18679621 110.88504696 231.13422108 C109.87400722 230.05570528 108.8741282 228.96645502 107.89285946 227.86078358 C106.93281689 226.82609832 105.97186858 225.79225278 105.01004696 224.75922108 C100.68640535 220.09588885 96.40686243 215.39725932 92.16239071 210.66156483 C89.58694938 207.80339924 86.98820897 204.96710025 84.38504696 202.13422108 C81.05175946 198.50678618 77.73558389 194.86529031 74.44754696 191.19672108 C70.96056599 187.3105151 67.4317271 183.46579301 63.88504696 179.63422108 C59.6052974 175.01069497 55.36746088 170.35329773 51.16239071 165.66156483 C48.58694921 162.80339904 45.98818932 159.96711846 43.38504696 157.13422108 C39.29335489 152.68089491 35.23681719 148.1976222 31.19754696 143.69672108 C28.60889693 140.82821699 25.9991955 137.97945457 23.38504696 135.13422108 C19.29338589 130.68086621 15.2368175 126.19762253 11.19754696 121.69672108 C8.60889693 118.82821699 5.9991955 115.97945457 3.38504696 113.13422108 C-0.70661411 108.68086621 -4.7631825 104.19762253 -8.80245304 99.69672108 C-10.92454896 97.34520939 -13.05928051 95.00588712 -15.2018671 92.67303944 C-16.14240922 91.64881052 -17.08186693 90.62358471 -18.02022648 89.59735584 C-20.18691536 87.22806255 -22.36366042 84.87086056 -24.56807804 82.53656483 C-36.78951534 69.42138296 -42.10239166 57.69828555 -41.52510929 39.84125233 C-40.72193591 27.32534361 -34.20320684 17.80676968 -25.36495304 9.38422108 C-18.07761746 3.26399783 -9.43700654 0.01545406 0 0 Z " fill="#000000" transform="translate(81.11495304107666,63.86577892303467)"/>
</svg>
