<?xml version="1.0" encoding="UTF-8"?>
<svg version="1.1" xmlns="http://www.w3.org/2000/svg" width="512" height="512">
<path d="M0 0 C102.96 0 205.92 0 312 0 C312 9.17244101 311.95897528 17.73800783 311.22265625 26.78125 C310.91748728 31.19281547 310.9083564 35.58074191 311 40 C312.41539062 40.14695312 312.41539062 40.14695312 313.859375 40.296875 C330.93930739 42.28610407 345.71994345 47.82239729 359 59 C360.5159375 60.1446875 360.5159375 60.1446875 362.0625 61.3125 C377.97499934 75.87074408 385.6324112 95.78176346 387.21875 116.9140625 C387.90519927 138.13678564 379.87311933 159.24340133 365.39770508 174.69799805 C352.20916216 188.18967462 333.96707222 198.42512698 314.7590332 199.07592773 C312.35902084 199.09783779 309.96250781 199.0874426 307.5625 199.0625 C306.08011664 199.05112218 304.59773005 199.04016124 303.11534119 199.02952576 C302.34458724 199.02397391 301.57383329 199.01842207 300.77972317 199.01270199 C300.19241452 199.00851033 299.60510588 199.00431868 299 199 C298.97750089 199.5718934 298.95500177 200.14378679 298.93182087 200.73301029 C298.33073403 215.78409148 297.51165417 230.81025156 296.51171875 245.83984375 C296.40474135 247.4481113 296.40474135 247.4481113 296.2956028 249.08886909 C295.91885865 254.73293865 295.53767663 260.37669114 295.15356445 266.02026367 C294.83889086 270.65804679 294.53410292 275.29632634 294.23754883 279.93530273 C293.8755185 285.59741665 293.49670623 291.25817294 293.1058445 296.91836739 C292.96088837 299.05770833 292.82175519 301.19745256 292.68872643 303.33756828 C292.5021948 306.31875926 292.29406722 309.29771741 292.08081055 312.27709961 C292.00655602 313.58236603 292.00655602 313.58236603 291.93080139 314.91400146 C291.39379254 321.90186033 289.88406969 327.47677155 284.48958969 332.19631958 C279.81031939 334.61491574 276.05120059 334.55381324 270.8591156 334.50120544 C269.84071234 334.50673984 268.82230909 334.51227424 267.77304512 334.51797634 C264.36203869 334.53158482 260.95176368 334.51661199 257.54077148 334.50170898 C255.09482512 334.50549204 252.6488809 334.51099198 250.20294189 334.51808167 C244.25028397 334.53060336 238.29791256 334.52446537 232.34528237 334.50940608 C225.41244402 334.49253532 218.4796584 334.49575754 211.54680587 334.49950016 C199.17707573 334.50537689 186.80744744 334.49121399 174.43774414 334.46655273 C162.43575219 334.44262729 150.43389628 334.43555072 138.43188477 334.44604492 C125.35977739 334.45745432 112.28773291 334.45938434 99.2156263 334.44494683 C97.8217758 334.44342099 96.42792529 334.44190064 95.03407478 334.44038582 C94.34828481 334.439628 93.66249484 334.43887019 92.95592336 334.43808941 C88.12362057 334.43334715 83.29134587 334.43519757 78.4590435 334.43945122 C71.95587956 334.44489233 65.45287679 334.43413606 58.94973755 334.41249657 C56.56041666 334.40692321 54.17107765 334.4064684 51.78175545 334.41144943 C48.52559314 334.41738723 45.27001075 334.40492549 42.01390076 334.38768005 C40.58861696 334.39669512 40.58861696 334.39669512 39.13453954 334.40589231 C32.91228922 334.34577992 29.70522511 333.16418009 24.8125 329.25 C20.76163628 324.22134159 20.61682103 317.58828439 20.22799683 311.37371826 C20.13967895 310.10844563 20.13967895 310.10844563 20.04957688 308.81761193 C19.85510047 306.00482602 19.67144979 303.19144117 19.48779297 300.37792969 C19.35021026 298.3553182 19.21196911 296.3327514 19.07312012 294.31022644 C18.69852489 288.8249929 18.33341542 283.33916518 17.97020483 277.85316753 C17.58818793 272.10443027 17.19812372 266.35623861 16.80911255 260.60797119 C16.15679157 250.95106626 15.51034009 241.2937826 14.86767578 231.63623047 C14.12570302 220.48697607 13.37589261 209.33827127 12.62153137 198.18984866 C11.81736926 186.30434859 11.01885798 174.41847376 10.22204065 162.53247929 C9.99266441 159.11647737 9.7622523 155.70054663 9.5316124 152.28462982 C9.16858811 146.90372588 8.80937276 141.52258027 8.45303345 136.14122963 C8.32207218 134.17198912 8.18988244 132.20282984 8.05633926 130.23376274 C7.87347417 127.53412939 7.69520332 124.83422876 7.51803589 122.13421631 C7.43837233 120.981301 7.43837233 120.981301 7.35709941 119.80509448 C6.97272793 113.83222863 7 108.02398516 7 102 C105.67 102 204.34 102 306 102 C302 163 302 163 301 168 C316.78997001 166.33204542 331.97041908 163.6406433 343 151 C351.76465578 139.75955485 355.56074382 127.20595392 354 113 C351.54165435 100.90162477 345.95428043 89.60746432 336 82 C324.4762848 75.17462195 314.59302408 72.699725 301.30712891 72.7215271 C299.40414929 72.7128385 299.40414929 72.7128385 297.46272564 72.70397437 C293.95769775 72.68823432 290.45275016 72.68474701 286.9476912 72.68332577 C283.16181566 72.6796212 279.37598364 72.66446048 275.59013367 72.65071106 C269.03630024 72.62846753 262.48248235 72.61343679 255.92861938 72.60334396 C246.45290994 72.58874106 236.97725464 72.56319972 227.50157702 72.53501268 C212.1268795 72.48957395 196.75217418 72.45294708 181.37744141 72.421875 C166.44481028 72.3916775 151.51219823 72.35732171 136.57958984 72.31738281 C135.65871 72.31492126 134.73783015 72.31245972 133.78904486 72.30992357 C129.16913173 72.29754874 124.54921883 72.28509225 119.92930603 72.27259517 C81.61956382 72.16907109 43.30979843 72.07985342 5 72 C3.99313282 68.97939847 3.73486135 66.56907455 3.51928711 63.40209961 C3.43927963 62.25337875 3.35927216 61.1046579 3.27684021 59.92112732 C3.19450638 58.67742874 3.11217255 57.43373016 3.02734375 56.15234375 C2.93997452 54.87073868 2.85260529 53.58913361 2.7625885 52.26869202 C2.5777069 49.55111865 2.39563473 46.83337559 2.21557617 44.11547852 C1.98633069 40.65790295 1.75062069 37.20080625 1.51279354 33.74381161 C1.28508912 30.42188168 1.0626834 27.09960361 0.83984375 23.77734375 C0.75548569 22.54781479 0.67112762 21.31828583 0.58421326 20.05149841 C0.50735794 18.88071243 0.43050262 17.70992645 0.35131836 16.50366211 C0.28327499 15.48678818 0.21523163 14.46991425 0.14512634 13.42222595 C-0.04444649 8.95190692 0 4.47433684 0 0 Z " fill="#000000" transform="translate(72,178)"/>
<path d="M0 0 C24.52409955 13.44283975 42.42391782 34.17178189 52.25 60.25 C52.6141723 61.5752424 52.9640503 62.90570775 53.25 64.25 C54.20519531 64.34796875 55.16039062 64.4459375 56.14453125 64.546875 C73.63105803 66.569245 87.70201915 72.40837874 99.25 86.25 C107.63315582 98.78061186 111.31941574 113.17960151 108.5 128.125 C107.48117686 132.00623099 106.3452326 134.55159209 103.25 137.25 C96.11792432 140.72731098 88.88426473 140.67162747 81.1043396 140.6242218 C79.79893553 140.62819621 78.49353147 140.63217061 77.1485697 140.63626546 C73.54522918 140.64680376 69.94213849 140.63875513 66.33880901 140.62751496 C62.44512574 140.6186441 58.55147414 140.62712471 54.65779114 140.63337708 C47.03854888 140.6428498 39.41940155 140.63627891 31.80016635 140.62411413 C22.92456518 140.61047277 14.04898646 140.61213384 5.17337747 140.61424746 C-10.66308031 140.61743503 -26.49949307 140.60578228 -42.3359375 140.58618164 C-57.69890717 140.56717205 -73.06182409 140.56009607 -88.42480469 140.56567383 C-105.16184511 140.5717325 -121.89886236 140.57155342 -138.63590086 140.560188 C-140.42068251 140.55898072 -142.20546416 140.55777474 -143.99024582 140.55657005 C-144.86835712 140.55596651 -145.74646842 140.55536298 -146.65118916 140.55474115 C-152.8366213 140.55086335 -159.0220448 140.55125506 -165.20747757 140.5531559 C-172.74476229 140.55527861 -180.28200082 140.55004778 -187.81927253 140.53554235 C-191.66417871 140.52830233 -195.50901766 140.52421802 -199.35392952 140.52878571 C-203.52212167 140.533617 -207.69012995 140.52294071 -211.85830688 140.51069641 C-213.68033219 140.5163654 -213.68033219 140.5163654 -215.53916609 140.52214891 C-223.7257673 140.47950309 -230.6408641 140.3591359 -236.75 134.25 C-240.16956909 128.93435022 -240.2567892 124.24754679 -240.1875 118.125 C-240.17920166 117.18865723 -240.17090332 116.25231445 -240.16235352 115.28759766 C-239.8240038 101.38515686 -234.49751278 90.20001382 -225.0625 80 C-214.94654747 70.45257969 -201.8654541 65.07763361 -187.99514771 65.15234375 C-186.30887268 65.15717018 -186.30887268 65.15717018 -184.58853149 65.16209412 C-182.76024307 65.17467003 -182.76024307 65.17467003 -180.89501953 65.1875 C-178.90715917 65.19449515 -176.91929869 65.20147476 -174.9314363 65.20786953 C-172.80224575 65.21523581 -170.67307013 65.22467065 -168.54388809 65.23416138 C-164.09693861 65.2521728 -159.65007477 65.2540781 -155.20309448 65.25170898 C-154.07516926 65.25115525 -154.07516926 65.25115525 -152.92445767 65.25059032 C-149.8252226 65.24882648 -146.72598789 65.24661633 -143.62675309 65.24444389 C-134.84257155 65.23918985 -126.05894545 65.24894026 -117.27490234 65.30126953 C-110.28607441 65.34279229 -103.29801114 65.35246011 -96.30910194 65.32515907 C-92.6150479 65.31194021 -88.92258023 65.3146738 -85.22870255 65.35620117 C-81.10602609 65.40216049 -76.98659312 65.37769699 -72.86376953 65.34765625 C-71.64895905 65.37223404 -70.43414856 65.39681183 -69.18252563 65.4221344 C-62.76540937 65.31329307 -62.76540937 65.31329307 -57.25350571 62.32907104 C-51.80554585 56.35879569 -47.32299752 49.76686393 -47.5625 41.4375 C-48.36854128 35.94098448 -51.07717293 31.71532783 -54.05859375 27.109375 C-57.85954813 20.68374312 -58.57322665 14.57567516 -57.75 7.25 C-55.98065212 1.07317475 -52.07813731 -3.27175652 -46.75 -6.75 C-32.41123183 -14.14819421 -13.13661195 -6.84818389 0 0 Z " fill="#000000" transform="translate(293.75,8.75)"/>
</svg>
