<?xml version="1.0" encoding="UTF-8"?>
<svg version="1.1" xmlns="http://www.w3.org/2000/svg" width="512" height="512">
<path d="M0 0 C13.14328948 9.54854364 21.5668852 24.57432439 24.59765625 40.41015625 C25.02104127 45.98339772 25.00802105 51.53473107 24.9853363 57.12127686 C24.98951466 58.80300223 24.99499492 60.48472478 25.00165612 62.16644216 C25.01606387 66.76452893 25.01188063 71.36243575 25.0044893 75.96053219 C24.99974827 80.92865095 25.01227583 85.8967313 25.02250671 90.86483765 C25.03968248 100.58935388 25.04053715 110.31380545 25.03529381 120.03833291 C25.03124814 127.94555756 25.03270039 135.85276314 25.03804207 143.75998688 C25.03879049 144.88651303 25.03953891 146.01303918 25.04031001 147.17370249 C25.04184154 149.46245565 25.04337988 151.75120881 25.04492498 154.03996196 C25.05864593 175.49303241 25.05321547 196.94606637 25.04173977 218.39913598 C25.03181069 238.00778076 25.04474318 257.61633114 25.06867396 277.22496137 C25.09308177 297.376903 25.10266851 317.5288007 25.09602123 337.68075681 C25.09253239 348.98736138 25.09473885 360.29389339 25.11227226 371.60048676 C25.12701537 381.22688504 25.12760224 390.85315967 25.11020135 400.47955558 C25.10170586 405.38676344 25.09950622 410.29375062 25.11485291 415.20094681 C25.12875354 419.70166535 25.1238682 424.20197526 25.10461367 428.70267048 C25.10086973 430.32238134 25.10372879 431.94212536 25.11422532 433.56180653 C25.23147603 453.0555836 20.50616787 469.42241787 6.5234375 483.6796875 C-6.39438817 496.15991163 -22.75911844 500.85545287 -40.2277832 500.84619141 C-52.80439778 500.58882999 -64.16987207 496.8333803 -74.40234375 489.41015625 C-75.70365234 488.47429687 -75.70365234 488.47429687 -77.03125 487.51953125 C-87.82021376 479.23213377 -95.91027119 468.41989061 -104.18310547 457.73828125 C-108.18093832 452.60823008 -112.41561758 447.7068864 -116.69799805 442.8137207 C-121.39251919 437.44584825 -125.92120385 431.95744096 -130.40234375 426.41015625 C-135.1801009 420.52851297 -139.99706337 414.68567348 -144.90234375 408.91015625 C-150.55075347 402.25967246 -156.07057524 395.50895061 -161.57421875 388.73828125 C-165.63640456 383.75418093 -169.74016318 378.81074169 -173.90234375 373.91015625 C-179.55075347 367.25967246 -185.07057524 360.50895061 -190.57421875 353.73828125 C-194.63640456 348.75418093 -198.74016318 343.81074169 -202.90234375 338.91015625 C-208.55075347 332.25967246 -214.07057524 325.50895061 -219.57421875 318.73828125 C-223.58979515 313.81136836 -227.65169255 308.93222216 -231.77734375 304.09765625 C-235.56015905 299.66154137 -239.20766633 295.144156 -242.77734375 290.53515625 C-247.23160576 284.7915026 -251.9116347 279.28281605 -256.69775391 273.81396484 C-261.39240095 268.44604903 -265.92113184 262.9575301 -270.40234375 257.41015625 C-275.73097332 250.85036316 -281.11654561 244.34569836 -286.59716797 237.91259766 C-289.25558416 234.78775828 -291.84614075 231.61885569 -294.40234375 228.41015625 C-294.4047321 229.5043818 -294.40712046 230.59860735 -294.40958118 231.72599125 C-294.46846778 258.39423391 -294.54440709 285.0623869 -294.63805866 311.73053074 C-294.68295683 324.62723026 -294.72238527 337.52390253 -294.7487793 350.4206543 C-294.77180781 361.66606917 -294.80525996 372.91139739 -294.85104531 384.15674347 C-294.87491207 390.10686923 -294.89368371 396.05690951 -294.89995766 402.00708199 C-294.90603817 407.61723144 -294.92614457 413.22716238 -294.95661926 418.83723068 C-294.96535214 420.88692516 -294.96913202 422.93664824 -294.96735191 424.98636055 C-294.95893016 439.16884271 -295.06149327 453.74870875 -301.90234375 466.59765625 C-302.2463623 467.25709229 -302.59038086 467.91652832 -302.94482422 468.59594727 C-310.98148293 483.2553095 -324.18478012 493.49028916 -340 498.75390625 C-353.65005449 502.48270162 -370.43788724 502.2633075 -383.40234375 496.41015625 C-384.34980469 495.98605469 -385.29726563 495.56195313 -386.2734375 495.125 C-393.31365813 491.61953647 -398.85545681 486.93801442 -404.40234375 481.41015625 C-405.35947266 480.48783203 -405.35947266 480.48783203 -406.3359375 479.546875 C-419.05767131 466.3151385 -421.86155291 449.30800593 -421.7900238 431.73699951 C-421.79420219 430.05939893 -421.79968247 428.38180117 -421.80634362 426.70420861 C-421.82075099 422.11752326 -421.81656825 417.53101833 -421.8091768 412.9443233 C-421.80443568 407.98847455 -421.81696342 403.03266431 -421.82719421 398.076828 C-421.84436979 388.3763752 -421.84522469 378.6759872 -421.83998131 368.97552314 C-421.8359356 361.08784463 -421.83738794 353.20018523 -421.84272957 345.31250763 C-421.84347799 344.18875684 -421.84422641 343.06500605 -421.84499751 341.9072022 C-421.84652904 339.62408604 -421.84806739 337.34096988 -421.84961248 335.05785373 C-421.86333336 313.65771838 -421.85790301 292.2576196 -421.84642727 270.85748509 C-421.83649821 251.29733916 -421.84943066 231.73728787 -421.87336146 212.17715654 C-421.89776943 192.07493543 -421.90735597 171.97275836 -421.90070873 151.87052274 C-421.89721992 140.59186377 -421.89942612 129.31327755 -421.91695976 118.03462982 C-421.93170307 108.43202001 -421.93228947 98.82953415 -421.91488885 89.22692671 C-421.90639352 84.33187026 -421.90419332 79.43703503 -421.91954041 74.54199028 C-421.93344154 70.05237392 -421.92855508 65.5631672 -421.90930117 61.07357422 C-421.90555738 59.45790102 -421.90841585 57.84219458 -421.91891282 56.22655115 C-422.03140325 37.57153107 -417.89925551 21.57385763 -404.67578125 7.69140625 C-403.55042969 6.5621875 -403.55042969 6.5621875 -402.40234375 5.41015625 C-401.77585937 4.76046875 -401.149375 4.11078125 -400.50390625 3.44140625 C-388.70910105 -7.90549496 -372.23344177 -11.10265662 -356.42260742 -10.93920898 C-339.08581214 -10.42710779 -322.91305411 -3.68485993 -310.89160156 9.00488281 C-304.41989156 16.08245502 -298.43319071 23.5482224 -292.57104492 31.13256836 C-288.59363969 36.2492557 -284.37363382 41.13111791 -280.10644531 46.00683594 C-275.41205009 51.37466503 -270.88341164 56.86296068 -266.40234375 62.41015625 C-261.6245866 68.29179953 -256.80762413 74.13463902 -251.90234375 79.91015625 C-246.25393403 86.56064004 -240.73411226 93.31136189 -235.23046875 100.08203125 C-231.16828294 105.06613157 -227.06452432 110.00957081 -222.90234375 114.91015625 C-217.25393403 121.56064004 -211.73411226 128.31136189 -206.23046875 135.08203125 C-202.21489235 140.00894414 -198.15299495 144.88809034 -194.02734375 149.72265625 C-190.24452845 154.15877113 -186.59702117 158.6761565 -183.02734375 163.28515625 C-178.57308174 169.0288099 -173.8930528 174.53749645 -169.10693359 180.00634766 C-164.41228655 185.37426347 -159.88355566 190.8627824 -155.40234375 196.41015625 C-150.6245866 202.29179953 -145.80762413 208.13463902 -140.90234375 213.91015625 C-135.25393403 220.56064004 -129.73411226 227.31136189 -124.23046875 234.08203125 C-119.61644843 239.74320512 -114.94359491 245.34855608 -110.20751953 250.90771484 C-107.54910334 254.03255422 -104.95854675 257.20145681 -102.40234375 260.41015625 C-102.39876122 258.76881793 -102.39876122 258.76881793 -102.39510632 257.09432125 C-102.33621972 230.42607859 -102.26028041 203.7579256 -102.16662884 177.08978176 C-102.12173067 164.19308224 -102.08230223 151.29640997 -102.0559082 138.3996582 C-102.03287969 127.15424333 -101.99942754 115.90891511 -101.95364219 104.66356903 C-101.92977543 98.71344327 -101.91100379 92.76340299 -101.90472984 86.81323051 C-101.89864933 81.20308106 -101.87854293 75.59315012 -101.84806824 69.98308182 C-101.83933536 67.93338734 -101.83555548 65.88366426 -101.83733559 63.83395195 C-101.84575734 49.65146979 -101.74319423 35.07160375 -94.90234375 22.22265625 C-94.5583252 21.56322021 -94.21430664 20.90378418 -93.85986328 20.22436523 C-85.82320457 5.565003 -72.61990738 -4.66997666 -56.8046875 -9.93359375 C-36.70137681 -15.42522984 -17.09061991 -11.31037773 0 0 Z " fill="#000000" transform="translate(454.40234375,11.58984375)"/>
</svg>
