<?xml version="1.0" encoding="UTF-8"?>
<svg version="1.1" xmlns="http://www.w3.org/2000/svg" width="512" height="512">
<path d="M0 0 C8.79242213 6.58738251 15.39670209 15.25113926 22.2109375 23.76708984 C24.51042645 26.6370579 26.83240069 29.48835189 29.1550293 32.33959961 C30.78949048 34.34674395 32.4205807 36.35658186 34.05078125 38.3671875 C36.52579403 41.41809697 39.01004862 44.46126153 41.5 47.5 C46.78950668 53.9574452 52.04902661 60.43918576 57.31054688 66.91943359 C60.03958691 70.28025428 62.76984025 73.6400889 65.5 77 C66.58333946 78.33332835 67.66667279 79.66666169 68.75 81 C69.554375 81.99 69.554375 81.99 70.375 83 C76.33333333 90.33333333 82.29166667 97.66666667 88.25 105 C89.05473755 105.99036255 89.05473755 105.99036255 89.87573242 107.00073242 C90.95684505 108.33144508 92.03773771 109.66233647 93.1184082 110.9934082 C95.85892404 114.36835242 98.60342941 117.73991236 101.35546875 121.10546875 C102.46637417 122.46595942 103.57705354 123.8266347 104.6875 125.1875 C105.49151245 126.17169922 105.49151245 126.17169922 106.31176758 127.17578125 C108.91575814 130.37823909 111.47843156 133.60268318 113.96875 136.89453125 C114.42934814 137.50337158 114.88994629 138.11221191 115.36450195 138.73950195 C116.22593553 139.88580156 117.08156721 141.03649181 117.93041992 142.19213867 C118.90799057 143.49688771 119.94832845 144.75420653 121 146 C121.66 146 122.32 146 123 146 C124.66304216 144.05670444 126.21240103 142.10226122 127.75 140.0625 C128.74555424 138.76811273 129.74303821 137.47520799 130.7421875 136.18359375 C131.27166992 135.49894043 131.80115234 134.81428711 132.34667969 134.10888672 C135.12684661 130.5626549 138.00032149 127.09472858 140.875 123.625 C145.46047418 118.08085302 150.02941744 112.52459631 154.5625 106.9375 C155.09472168 106.28152832 155.62694336 105.62555664 156.17529297 104.94970703 C157.24738147 103.62788727 158.3193219 102.30594741 159.39111328 100.98388672 C162.09162745 97.65393555 164.79600243 94.32712266 167.5 91 C170.7975415 86.94194712 174.09469764 82.88358278 177.390625 78.82421875 C182.79529309 72.16847008 188.20760639 65.51936373 193.640625 58.88671875 C198.21049414 53.29543846 202.7588169 47.686615 207.31054688 42.08056641 C208.96189799 40.04692274 210.61366218 38.01361553 212.265625 35.98046875 C213.06709961 34.99373169 213.06709961 34.99373169 213.88476562 33.98706055 C214.96063285 32.66352921 216.03745463 31.34077323 217.11523438 30.01879883 C219.89738118 26.60362134 222.65915716 23.17463699 225.390625 19.71875 C238.0733871 3.72624408 251.91631013 -8.40236835 273 -11 C290.04306269 -12.46987113 307.0584464 -8.20991745 320.84765625 2.13671875 C333.40305429 12.98776412 342.26572786 27.18987357 343.875 43.953125 C345.40281279 68.97105944 334.93851407 85.20554176 319.55859375 103.6875 C316.40516163 107.48815781 313.34094424 111.34943874 310.3125 115.25 C306.3007083 120.40791288 302.1510439 125.42462287 297.90893555 130.39428711 C294.59530185 134.28003343 291.38032486 138.2299214 288.20703125 142.23046875 C285.43126687 145.71368458 282.62308435 149.16985828 279.8125 152.625 C279.2570752 153.30796143 278.70165039 153.99092285 278.12939453 154.69458008 C276.98822213 156.09757779 275.8469451 157.50049041 274.70556641 158.90332031 C271.9688352 162.26762715 269.23451992 165.6338958 266.5 169 C265.42188107 170.32682785 264.34375605 171.65365075 263.265625 172.98046875 C261.04635939 175.71182122 258.8276805 178.44364896 256.609375 181.17578125 C251.20470691 187.83152992 245.79239361 194.48063627 240.359375 201.11328125 C235.78950586 206.70456154 231.2411831 212.313385 226.68945312 217.91943359 C223.96041309 221.28025428 221.23015975 224.6400889 218.5 228 C217.41666054 229.33332835 216.33332721 230.66666169 215.25 232 C208.75 240 208.75 240 207.21261787 241.88298798 C206.12971872 243.22158812 205.05750925 244.56897031 204.00050163 245.92810822 C201.38997382 249.25083109 198.85581097 252.23156079 195.57009888 254.90026855 C188.77961313 260.85868148 185.6049232 267.04451368 184.84515381 276.08227539 C184.23787167 285.51812385 184.42222915 294.98531287 184.57874441 304.43298912 C184.64368827 309.24470091 184.63149348 314.05622668 184.62722778 318.86828613 C184.63009595 327.97612088 184.69625813 337.08225877 184.78799546 346.18958902 C184.91992038 359.52347108 184.9662476 372.8577104 185.00038338 386.19216156 C185.00419575 387.66785543 185.00419575 387.66785543 185.00808513 389.1733613 C185.01311028 391.13708782 185.01794494 393.10081483 185.02258408 395.06454229 C185.03832585 400.76725607 185.07577574 406.46928454 185.13294482 412.17173004 C185.16665425 415.73535332 185.18833889 419.29899267 185.20791054 422.86271858 C185.21974017 424.49764436 185.23684678 426.1325432 185.26003456 427.76734734 C185.44573105 441.07948034 184.96781863 455.26512213 178.5 467.25 C178.15888184 467.90347412 177.81776367 468.55694824 177.46630859 469.23022461 C168.72806645 485.13258308 154.4739771 494.94927904 137.296875 500.11328125 C121.69822642 503.83648391 104.69190235 501.40113039 90.75 493.8125 C76.38733031 484.85019411 65.07518699 471.25946497 60.625 454.6875 C58.9520236 444.81693926 58.89618749 435.18384439 58.96923828 425.21191406 C58.97767707 423.5174182 58.98550876 421.82291923 58.99278259 420.12841797 C59.00450634 417.42755763 59.01669003 414.72670578 59.03075147 412.02585649 C59.06546118 405.33197751 59.0814924 398.63823914 59.08639526 391.9442749 C59.08712795 390.96970219 59.08786064 389.99512948 59.08861554 388.99102426 C59.09127812 384.97501551 59.09332477 380.95900669 59.0950911 376.94299746 C59.10087168 365.57073788 59.12467162 354.19916568 59.20214844 342.82714844 C59.26370248 333.77416637 59.28615772 324.72202731 59.26333606 315.66885161 C59.25273359 310.88635676 59.26141617 306.10570835 59.31766129 301.32349396 C59.37017685 296.82127218 59.37047386 292.32194795 59.33229256 287.8196106 C59.32733611 286.1769752 59.34083866 284.5341525 59.37517738 282.89186859 C59.57491105 272.72093235 58.23802218 266.6151105 51.11749947 259.08074021 C49.75639488 257.70909112 48.37877147 256.35388928 47 255 C45.94169913 253.73040219 44.90379258 252.44287259 43.90625 251.125 C39.0512775 244.81984091 34.07617392 238.65885645 28.90966797 232.60668945 C25.5959129 228.72051545 22.3805778 224.77039748 19.20703125 220.76953125 C16.43126687 217.28631542 13.62308435 213.83014172 10.8125 210.375 C10.2570752 209.69203857 9.70165039 209.00907715 9.12939453 208.30541992 C7.98822213 206.90242221 6.8469451 205.49950959 5.70556641 204.09667969 C2.96883521 200.73237286 0.2345045 197.36611672 -2.5 194 C-3.58332107 192.6666567 -4.66665442 191.33332338 -5.75 190 C-12.25 182 -12.25 182 -13.87597656 179.9987793 C-14.95603016 178.66949505 -16.03610817 177.34023063 -17.11621094 176.01098633 C-19.87492773 172.61586671 -22.63318009 169.22037148 -25.390625 165.82421875 C-30.08543759 160.04264398 -34.78055907 154.26150727 -39.5 148.5 C-44.78950668 142.0425548 -50.04902661 135.56081424 -55.31054688 129.08056641 C-57.50143177 126.38248533 -59.69306444 123.68501259 -61.88500977 120.98779297 C-62.9614111 119.66291622 -64.0374205 118.33772095 -65.11303711 117.01220703 C-67.87533438 113.60905679 -70.64446593 110.21184975 -73.42578125 106.82421875 C-89.49876718 87.22088339 -102.21461215 69.63307539 -99.7265625 43.08203125 C-97.36319555 26.20402389 -89.20107715 11.82250469 -76 1 C-52.73657634 -14.82814055 -23.49728464 -16.42177176 0 0 Z " fill="#000000" transform="translate(134,11)"/>
</svg>
