<?xml version="1.0" encoding="UTF-8"?>
<svg version="1.1" xmlns="http://www.w3.org/2000/svg" width="512" height="512">
<path d="M0 0 C7.77128874 5.41310457 12.89329517 13.12023143 17.6875 21.125 C18.82544339 22.99353675 19.96346795 24.86202407 21.1015625 26.73046875 C21.99149902 28.2007251 21.99149902 28.2007251 22.89941406 29.70068359 C26.09309601 34.9630962 29.33167397 40.1978437 32.5625 45.4375 C33.91959728 47.64302833 35.27636518 49.84875937 36.6328125 52.0546875 C37.31118164 53.15780273 37.98955078 54.26091797 38.68847656 55.39746094 C40.06282552 57.63248698 41.43717448 59.86751302 42.81152344 62.10253906 C49.61127663 73.15980993 56.41240495 84.21607761 63.25 95.25 C70.09209481 106.29118371 76.89751989 117.35483237 83.70166016 128.41943359 C87.04993688 133.86367567 90.40002462 139.30680305 93.75 144.75 C97.78608633 151.30802216 101.82174186 157.8663075 105.85546875 164.42578125 C111.9744565 174.37497507 118.0974381 184.32152516 124.25 194.25 C131.09209481 205.29118371 137.89751989 216.35483237 144.70166016 227.41943359 C148.71073339 233.93811978 152.72178664 240.45558847 156.73388672 246.97241211 C159.80210394 251.95666432 162.86880749 256.9418207 165.92855835 261.93127441 C166.99292439 263.66670741 168.05789795 265.40176617 169.12304688 267.13671875 C170.44455137 269.28963336 171.76496746 271.44321668 173.08398438 273.59765625 C176.49317129 279.14883494 179.9590225 284.65863638 183.48852539 290.13378906 C183.90056465 290.77381866 184.31260391 291.41384827 184.73712921 292.07327271 C185.74099026 293.63245823 186.74543391 295.19126863 187.75 296.75 C187.75021737 296.18574053 187.75043474 295.62148105 187.75065869 295.04012281 C187.76418847 261.56228081 187.80373766 228.08458177 187.87685562 194.60681858 C187.88562188 190.58285015 187.89417177 186.55888129 187.90258789 182.53491211 C187.90510648 181.3333141 187.90510648 181.3333141 187.90767596 180.10744139 C187.93431134 167.1540649 187.94343856 154.20073266 187.94604143 141.2473316 C187.94910601 127.94583117 187.9711109 114.64445823 188.01052457 101.34301537 C188.03423333 93.14201529 188.04334817 84.94127006 188.03351311 76.74024048 C188.02817788 71.10867764 188.04131875 65.47734218 188.0686629 59.84584407 C188.08388014 56.60158843 188.08851453 53.35794162 188.07659721 50.113657 C188.01506837 31.51686042 189.03576372 18.1294892 202.33203125 4.078125 C212.86242041 -5.86297231 224.81420358 -7.81961837 238.609375 -7.58984375 C250.94705449 -7.04526852 260.64149375 -0.85027981 268.9375 7.9375 C275.49488708 15.99685842 278.90469495 24.85127788 278.88701439 35.10875607 C278.88966622 35.85573786 278.89231804 36.60271965 278.89505023 37.37233725 C278.90274388 39.88942701 278.90330243 42.40646799 278.90390015 44.92356873 C278.90791474 46.74091866 278.91235295 48.5582677 278.9171797 50.37561566 C278.92915165 55.38097526 278.93479511 60.38632522 278.93936086 65.39169633 C278.94531467 70.78593286 278.95692514 76.18015785 278.96765137 81.5743866 C278.99218152 94.60811697 279.00680398 107.64185116 279.01971143 120.67559752 C279.0234231 124.35680921 279.02739636 128.03802053 279.0314641 131.71923184 C279.05670173 154.57745027 279.0787556 177.43566929 279.09119225 200.29389858 C279.09412196 205.58940572 279.09708362 210.88491283 279.10009766 216.18041992 C279.10084371 217.49659961 279.10158976 218.8127793 279.10235842 220.16884322 C279.11500991 241.48645612 279.14822974 262.80396866 279.18989949 284.12154602 C279.232328 306.00668615 279.2558884 327.89178357 279.26111281 349.77696472 C279.26452601 362.06509091 279.27627053 374.35308671 279.30921555 386.64117241 C279.33722982 397.10734998 279.34820929 407.57337045 279.33702008 418.0395826 C279.33183692 423.37792391 279.33469831 428.7159363 279.35948563 434.05422974 C279.38201339 438.94683658 279.38121067 443.83887889 279.36228175 448.73149586 C279.3594867 450.49607206 279.36505262 452.26068684 279.38009469 454.02520113 C279.50631543 469.8036146 276.27955141 481.67926419 265.16796875 493.421875 C254.63757959 503.36297231 242.68579642 505.31961837 228.890625 505.08984375 C217.60498722 504.59170479 208.06076674 499.42141389 200.37011719 491.29125977 C196.25788299 486.69064778 193.05430796 481.71080594 189.875 476.4375 C188.72787663 474.55988847 187.58074064 472.68228466 186.43359375 470.8046875 C185.83401855 469.81823242 185.23444336 468.83177734 184.61669922 467.81542969 C182.07256956 463.63754687 179.50562459 459.47388133 176.93896484 455.30981445 C174.90908274 452.01639388 172.88189949 448.72132641 170.85546875 445.42578125 C166.82174186 438.8663075 162.78608633 432.30802216 158.75 425.75 C154.71391367 419.19197784 150.67825814 412.6336925 146.64453125 406.07421875 C140.5255435 396.12502493 134.4025619 386.17847484 128.25 376.25 C121.40790519 365.20881629 114.60248011 354.14516763 107.79833984 343.08056641 C104.45006312 337.63632433 101.09997538 332.19319695 97.75 326.75 C93.71391367 320.19197784 89.67825814 313.6336925 85.64453125 307.07421875 C79.5255435 297.12502493 73.4025619 287.17847484 67.25 277.25 C61.1063789 267.33595305 54.99203458 257.40402358 48.8828125 247.46875 C46.44343165 243.50171124 44.00227957 239.53577999 41.55784607 235.57185364 C40.49508143 233.84844289 39.43267562 232.12481142 38.37036133 230.40112305 C37.05317148 228.264147 35.73535929 226.12755435 34.41674805 223.99145508 C30.91160351 218.30247461 27.44544977 212.59226386 24.01147461 206.86010742 C23.59943535 206.1728231 23.18739609 205.48553879 22.76287079 204.77742767 C21.75833097 203.10176803 20.75413004 201.42590523 19.75 199.75 C19.74978263 200.31637544 19.74956526 200.88275089 19.74934131 201.46628922 C19.73581164 235.06938588 19.69626299 268.6723444 19.62314438 302.27536369 C19.61437812 306.3143534 19.60582822 310.35334354 19.59741211 314.39233398 C19.59573305 315.19638994 19.59405398 316.00044589 19.59232404 316.82886717 C19.56568839 329.83074259 19.55656143 342.83257391 19.55395857 355.83447381 C19.55089404 369.18569456 19.52888962 382.53678829 19.48947543 395.88795167 C19.46576622 404.11966095 19.45665204 412.3511163 19.46648689 420.58285496 C19.47182196 426.23544223 19.45868199 431.88780295 19.4313371 437.54032572 C19.41611929 440.79673226 19.411486 444.05253218 19.42340279 447.30896759 C19.48479793 465.93560986 18.48619435 479.34730572 5.16796875 493.421875 C-5.36242041 503.36297231 -17.31420358 505.31961837 -31.109375 505.08984375 C-43.44705449 504.54526852 -53.14149375 498.35027981 -61.4375 489.5625 C-67.99488708 481.50314158 -71.40469495 472.64872212 -71.38701439 462.39124393 C-71.38966622 461.64426214 -71.39231804 460.89728035 -71.39505023 460.12766275 C-71.40274388 457.61057299 -71.40330243 455.09353201 -71.40390015 452.57643127 C-71.40791474 450.75908134 -71.41235295 448.9417323 -71.4171797 447.12438434 C-71.42915165 442.11902474 -71.43479511 437.11367478 -71.43936086 432.10830367 C-71.44531467 426.71406714 -71.45692514 421.31984215 -71.46765137 415.9256134 C-71.49218152 402.89188303 -71.50680398 389.85814884 -71.51971143 376.82440248 C-71.5234231 373.14319079 -71.52739636 369.46197947 -71.5314641 365.78076816 C-71.55670173 342.92254973 -71.5787556 320.06433071 -71.59119225 297.20610142 C-71.59412196 291.91059428 -71.59708362 286.61508717 -71.60009766 281.31958008 C-71.60121673 279.34531055 -71.60121673 279.34531055 -71.60235842 277.33115678 C-71.61500991 256.01354388 -71.64822974 234.69603134 -71.68989949 213.37845398 C-71.732328 191.49331385 -71.7558884 169.60821643 -71.76111281 147.72303528 C-71.76452601 135.43490909 -71.77627053 123.14691329 -71.80921555 110.85882759 C-71.83722982 100.39265002 -71.84820929 89.92662955 -71.83702008 79.4604174 C-71.83183692 74.12207609 -71.83469831 68.7840637 -71.85948563 63.44577026 C-71.88201339 58.55316342 -71.88121067 53.66112111 -71.86228175 48.76850414 C-71.8594867 47.00392794 -71.86505262 45.23931316 -71.88009469 43.47479887 C-72.00631543 27.6963854 -68.77955141 15.82073581 -57.66796875 4.078125 C-41.98334816 -10.72876743 -17.5539982 -11.44939883 0 0 Z " fill="#000000" transform="translate(152.25,7.25)"/>
</svg>
