<?xml version="1.0" encoding="UTF-8"?>
<svg version="1.1" xmlns="http://www.w3.org/2000/svg" width="512" height="512">
<path d="M0 0 C0.67735073 -0.00297112 1.35470146 -0.00594224 2.05257797 -0.0090034 C4.30370088 -0.01761787 6.55477017 -0.01919247 8.8059082 -0.02069092 C10.42790336 -0.02532438 12.04989743 -0.03034974 13.67189026 -0.03573608 C18.06697044 -0.0488145 22.46203537 -0.05529655 26.85713196 -0.05974674 C29.60930584 -0.0626859 32.36147564 -0.06679235 35.11364746 -0.07125092 C43.74259356 -0.08491618 52.37153021 -0.0945866 61.00048637 -0.09845281 C70.92715516 -0.10292604 80.85368574 -0.12044387 90.78031254 -0.1494534 C98.47489478 -0.17115118 106.16943839 -0.18116145 113.86405087 -0.18249393 C118.44924687 -0.18353652 123.0343128 -0.18932661 127.61947632 -0.20731354 C131.94024819 -0.22393404 136.26079416 -0.22588283 140.58158684 -0.21717453 C142.15560453 -0.21641147 143.72963508 -0.22064867 145.30362129 -0.23063278 C169.2068151 -0.37319725 189.55601047 6.11063594 206.91918945 23.14044189 C207.69391602 23.87907471 208.46864258 24.61770752 209.2668457 25.37872314 C222.89457475 39.28695433 228.88840115 58.90056431 228.95385742 78.05743408 C228.62082956 98.06724912 220.43206117 116.50733211 206.91918945 131.14044189 C203.41922978 134.38853041 199.76708158 137.31575164 195.91918945 140.14044189 C195.16250977 140.69602783 194.40583008 141.25161377 193.6262207 141.82403564 C182.09445271 149.46556865 167.47773571 153.23952802 153.77590942 153.28761292 C153.09180272 153.2912896 152.40769602 153.29496629 151.70285881 153.29875439 C149.42876976 153.30969677 147.15472655 153.31361892 144.88061523 153.31744385 C143.24216063 153.32371588 141.60370742 153.33036333 139.96525574 153.33735657 C134.59834773 153.35831974 129.23143971 153.36875499 123.86450195 153.37872314 C122.00908265 153.38277426 120.15366349 153.38689129 118.29824448 153.39107323 C109.57425624 153.41011166 100.85027636 153.42434283 92.12627137 153.4326852 C82.09544181 153.4424384 72.06483404 153.46871338 62.03408253 153.50918609 C54.25624357 153.53947833 46.47846769 153.55416661 38.70057094 153.55746621 C34.06719841 153.55980266 29.43406315 153.56857752 24.80075455 153.59392738 C20.4323257 153.61744245 16.06428639 153.62134873 11.69581032 153.611166 C10.10650005 153.61067609 8.51716904 153.61683233 6.92791939 153.63072205 C-6.92569312 153.74486776 -21.14866482 152.13674209 -33.51831055 145.39044189 C-34.1724292 145.04827637 -34.82654785 144.70611084 -35.50048828 144.35357666 C-41.23914829 141.25448785 -46.26147871 137.53718307 -51.08081055 133.14044189 C-51.9934668 132.3650708 -51.9934668 132.3650708 -52.92456055 131.57403564 C-66.53353467 119.23317047 -74.47850029 99.55459846 -75.3659668 81.51934814 C-76.03135359 58.10811491 -68.67948466 38.38288472 -52.64331055 21.32794189 C-38.33103402 7.83257613 -19.64031617 0.04846073 0 0 Z " fill="#000000" transform="translate(177.080810546875,275.85955810546875)"/>
<path d="M0 0 C1.05960937 0.36222656 2.11921875 0.72445312 3.2109375 1.09765625 C24.83997584 9.29889829 40.53898249 26.28681258 50.23828125 46.85546875 C60.03435838 68.90573679 58.91199413 93.34842746 50.50390625 115.5859375 C46.01674037 125.77238681 39.70359514 134.05654934 32 142 C31.46117187 142.61230469 30.92234375 143.22460938 30.3671875 143.85546875 C16.98218007 158.55207239 -4.36353848 166.23377271 -23.7578125 167.31640625 C-39.26435143 167.84678972 -54.25278767 165.46994643 -68 158 C-68.96035156 157.50886719 -69.92070312 157.01773438 -70.91015625 156.51171875 C-79.08957885 152.0895535 -85.47158968 146.51890754 -92 140 C-92.66902344 139.34257812 -93.33804688 138.68515625 -94.02734375 138.0078125 C-108.37241557 122.84952799 -114.7717799 101.16727389 -115.3125 80.6875 C-115.24753307 79.12287984 -115.14041955 77.55965999 -115 76 C-114.86078125 74.42605469 -114.86078125 74.42605469 -114.71875 72.8203125 C-112.12608876 50.43367984 -101.846507 29.39662817 -84.35644531 14.94702148 C-60.57423541 -3.69924309 -28.87830067 -10.12400196 0 0 Z " fill="#000000" transform="translate(282,91)"/>
</svg>
